# xmcd
#
# Track frame offsets: 
#        183
#        20170
#        47193
#        72153
#        95623
#        121313
#        145833
#        170380
#        194968
#        218188
#
# Disc length: 3189 seconds
#
# Revision: 1
# Processed by: cddbd v1.5.2PL0 Copyright (c) Steve Scherf et al.
# Submitted via: ExactAudioCopy v1.0b3
#
DISCID=9c0c730a
DTITLE=Nino Segarra - Loco De Amor
DYEAR=1992
DGENRE=Salsa
TTITLE0=Pero Te Quiero
TTITLE1=Tu Volveras A Mi
TTITLE2=Loco De Amor
TTITLE3=Y Es Que Tu
TTITLE4=Medley De Boleros (Lagrimas Del Alma Mienteme)
TTITLE5=Siempre Te Vas
TTITLE6=La Otra
TTITLE7=Vuelve A Mi
TTITLE8=Como Somos
TTITLE9=Medley De Camilo Sesto
EXTD=
EXTT0=
EXTT1=
EXTT2=
EXTT3=
EXTT4=
EXTT5=
EXTT6=
EXTT7=
EXTT8=
EXTT9=
PLAYORDER=
